<?xml version="1.0" encoding="UTF-8"?>
<svg width="1024px" height="1024px" viewBox="0 0 1024 1024" version="1.1" xmlns="http://www.w3.org/2000/svg" xmlns:xlink="http://www.w3.org/1999/xlink">
    <!-- Generator: Sketch 41.2 (35397) - http://www.bohemiancoding.com/sketch -->
    <title>mrBOX Logo</title>
    <desc>Created with Sketch.</desc>
    <defs></defs>
    <g id="Page-1" stroke="none" stroke-width="1" fill="none" fill-rule="evenodd">
        <g id="mrBOX-Logo" fill="#771369">
            <g id="Logo" transform="translate(189.000000, 166.000000)">
                <path d="M462,357 L632,576.5 C632,576.5 605.5,607 567,636.5 C528.5,666 486.5,690 486.5,690 L348.5,510.5 L462,357 Z" id="Rectangle-3"></path>
                <path d="M348,185 L470.5,24 C470.5,24 477.5,8.5 506,3 C534.5,-2.5 552.5,16.5 552.5,16.5 L648.5,97 L462.5,336.5 L348,185 Z" id="Rectangle-2"></path>
                <path d="M2.84217094e-14,262 L163,262 L45.5,115.5 C45.5,115.5 50,103 95.5,65.5 C141,28 198,5.68434189e-14 198,5.68434189e-14 L456,345.5 L215,666 C215,666 201.5,685 176.5,688.5 C151.5,692 132,675.5 132,675.5 L35,599.5 L167.5,425 L2.84217094e-14,425 L2.84217094e-14,262 Z" id="Rectangle"></path>
            </g>
        </g>
    </g>
</svg>