<?xml version="1.0" encoding="UTF-8"?>
<svg width="100%" height="100%" viewBox="0 0 343 343" version="1.1" xmlns="http://www.w3.org/2000/svg" xmlns:xlink="http://www.w3.org/1999/xlink">
    <!-- Generator: Sketch 41.2 (35397) - http://www.bohemiancoding.com/sketch -->
    <title>Artboard</title>
    <desc>Created with Sketch.</desc>
    <defs></defs>
    <g id="Consumer" stroke="none" stroke-width="1" fill="none" fill-rule="evenodd">
        <g id="Artboard" fill="#FAF6FA">
            <g id="Logo">
                <path d="M244.169492,177.465217 L334.015408,286.578986 C334.015408,286.578986 320.010015,301.74058 299.662558,316.405072 C279.3151,331.069565 257.117874,343 257.117874,343 L184.184129,253.77029 L244.169492,177.465217 Z" id="Rectangle-3"></path>
                <path d="M183.919877,91.9637681 L248.661787,11.9304348 C248.661787,11.9304348 252.361325,4.22536232 267.423729,1.49130435 C282.486133,-1.24275362 291.99923,8.20217391 291.99923,8.20217391 L342.735747,48.2188406 L244.433744,167.274638 L183.919877,91.9637681 Z" id="Rectangle-2"></path>
                <path d="M1.42108547e-14,130.24058 L86.146379,130.24058 L24.0469954,57.4152174 C24.0469954,57.4152174 26.4252696,51.2014493 50.472265,32.5601449 C74.5192604,13.9188406 104.644068,2.84217094e-14 104.644068,2.84217094e-14 L240.998459,171.748551 L113.628659,331.069565 C113.628659,331.069565 106.493837,340.514493 93.2812018,342.254348 C80.068567,343.994203 69.7627119,335.792029 69.7627119,335.792029 L18.4976888,298.012319 L88.5246533,211.268116 L1.42108547e-14,211.268116 L1.42108547e-14,130.24058 Z" id="Rectangle"></path>
            </g>
        </g>
    </g>
</svg>